<svg xmlns="http://www.w3.org/2000/svg" xmlns:xlink="http://www.w3.org/1999/xlink" width="500" zoomAndPan="magnify" viewBox="0 0 375 149.999998" height="200" preserveAspectRatio="xMidYMid meet" version="1.0"><defs><g/><clipPath id="83db45d629"><path d="M 61 24 L 140.652344 24 L 140.652344 114.292969 L 61 114.292969 Z M 61 24 " clip-rule="nonzero"/></clipPath><clipPath id="5a0d36611a"><path d="M 68 37 L 134 37 L 134 91.332031 L 68 91.332031 Z M 68 37 " clip-rule="nonzero"/></clipPath><clipPath id="a3d4c0d9a2"><path d="M 67.234375 35.636719 L 134.898438 35.636719 L 134.898438 91.332031 L 67.234375 91.332031 Z M 67.234375 35.636719 " clip-rule="nonzero"/></clipPath></defs><g clip-path="url(#83db45d629)"><path fill="#ff1616" d="M 134.808594 29.4375 C 131.238281 26.03125 126.449219 24.132812 121.515625 24.148438 C 116.417969 24.167969 111.632812 26.164062 108.027344 29.765625 L 101.152344 36.640625 L 94.449219 29.9375 C 86.984375 22.472656 74.828125 22.238281 67.292969 29.632812 C 59.679688 37.097656 59.632812 49.367188 67.15625 56.886719 L 103.554688 93.285156 C 107.707031 97.441406 107.902344 104.203125 103.828125 108.4375 C 99.660156 112.765625 92.742188 112.820312 88.511719 108.585938 L 79.496094 99.570312 C 79.113281 99.191406 79.074219 98.589844 79.402344 98.160156 C 80.734375 96.410156 81.472656 94.183594 81.304688 91.785156 C 80.980469 87.050781 77.109375 83.246094 72.371094 83 C 66.882812 82.710938 62.332031 87.132812 62.40625 92.574219 C 62.472656 97.617188 66.582031 101.777344 71.621094 101.90625 C 73.246094 101.945312 74.785156 101.574219 76.136719 100.886719 C 76.546875 100.679688 77.042969 100.769531 77.367188 101.09375 L 86.683594 110.410156 C 89.277344 113.003906 92.683594 114.300781 96.089844 114.300781 C 99.5 114.300781 102.90625 113 105.5 110.410156 C 110.6875 105.222656 110.6875 96.777344 105.5 91.589844 L 68.980469 55.066406 C 62.507812 48.59375 62.507812 38.0625 68.980469 31.589844 C 75.453125 25.117188 85.984375 25.117188 92.453125 31.589844 L 100.207031 39.34375 C 100.46875 39.601562 100.8125 39.726562 101.152344 39.71875 C 101.492188 39.726562 101.835938 39.601562 102.097656 39.34375 L 109.695312 31.746094 C 112.847656 28.59375 117.101562 26.738281 121.554688 26.730469 C 126.003906 26.722656 130.183594 28.449219 133.328125 31.589844 C 136.46875 34.734375 138.195312 38.910156 138.1875 43.355469 C 138.183594 47.8125 136.324219 52.070312 133.171875 55.222656 L 130.71875 57.679688 C 130.515625 57.878906 130.242188 57.992188 129.953125 57.992188 L 122.632812 57.992188 C 122.226562 57.992188 121.855469 57.765625 121.671875 57.402344 L 118.136719 50.328125 C 117.742188 49.535156 116.613281 49.535156 116.21875 50.328125 L 110.140625 62.472656 C 109.746094 63.265625 108.613281 63.265625 108.21875 62.472656 L 106.144531 58.320312 C 105.75 57.527344 104.621094 57.527344 104.222656 58.320312 L 102.148438 62.46875 C 101.753906 63.261719 100.625 63.261719 100.230469 62.46875 L 94.15625 50.324219 C 93.761719 49.53125 92.628906 49.53125 92.234375 50.324219 L 88.699219 57.398438 C 88.515625 57.757812 88.144531 57.988281 87.738281 57.988281 L 81.261719 57.988281 C 80.554688 57.988281 79.9375 58.53125 79.917969 59.238281 C 79.894531 59.96875 80.480469 60.566406 81.207031 60.566406 L 89.332031 60.566406 C 89.738281 60.566406 90.113281 60.335938 90.292969 59.972656 L 92.234375 56.089844 C 92.628906 55.296875 93.761719 55.296875 94.15625 56.089844 L 100.230469 68.234375 C 100.625 69.027344 101.753906 69.027344 102.148438 68.234375 L 104.222656 64.082031 C 104.621094 63.292969 105.75 63.292969 106.144531 64.082031 L 108.21875 68.234375 C 108.613281 69.027344 109.746094 69.027344 110.140625 68.234375 L 116.214844 56.089844 C 116.609375 55.300781 117.738281 55.296875 118.132812 56.089844 L 120.078125 59.976562 C 120.261719 60.339844 120.632812 60.570312 121.039062 60.570312 L 130.929688 60.570312 C 130.929688 60.570312 130.929688 60.570312 130.933594 60.570312 C 131.015625 60.570312 131.089844 60.5625 131.167969 60.546875 C 131.171875 60.546875 131.175781 60.546875 131.179688 60.546875 C 131.257812 60.53125 131.332031 60.507812 131.402344 60.480469 C 131.410156 60.480469 131.414062 60.476562 131.421875 60.476562 C 131.492188 60.445312 131.5625 60.410156 131.625 60.367188 C 131.632812 60.363281 131.640625 60.359375 131.644531 60.355469 C 131.714844 60.308594 131.777344 60.257812 131.839844 60.199219 C 131.839844 60.199219 131.839844 60.199219 131.84375 60.195312 L 134.960938 57.078125 C 138.652344 53.386719 140.808594 48.386719 140.765625 43.167969 C 140.722656 37.945312 138.609375 33.054688 134.808594 29.4375 Z M 64.984375 92.445312 C 64.984375 88.648438 68.074219 85.5625 71.867188 85.5625 C 75.660156 85.5625 78.75 88.652344 78.75 92.445312 C 78.75 96.242188 75.660156 99.328125 71.867188 99.328125 C 68.074219 99.328125 64.984375 96.242188 64.984375 92.445312 Z M 64.984375 92.445312 " fill-opacity="1" fill-rule="nonzero"/></g><g clip-path="url(#5a0d36611a)"><path fill="#ff1616" d="M 101.027344 91.175781 L 73.984375 65.398438 C 67.480469 59.195312 67.234375 48.894531 73.4375 42.394531 C 79.636719 35.890625 89.933594 35.644531 96.441406 41.84375 L 101.027344 46.214844 L 105.609375 41.84375 C 112.113281 35.644531 122.414062 35.890625 128.613281 42.394531 C 134.816406 48.894531 134.570312 59.195312 128.066406 65.398438 L 101.027344 91.175781 " fill-opacity="1" fill-rule="nonzero"/></g><path fill="#ff1616" d="M 75.875 69.179688 L 87.902344 69.179688 L 94.800781 53.96875 L 102.050781 74.308594 L 110.007812 59.628906 L 114.785156 68.117188 L 127.164062 68.117188 " fill-opacity="1" fill-rule="nonzero"/><g clip-path="url(#a3d4c0d9a2)"><path stroke-linecap="butt" transform="matrix(0.0323376, 0, 0, -0.0323376, 32.275933, 133.01289)" fill="none" stroke-linejoin="miter" d="M 1348.247433 1973.963131 L 1720.178217 1973.963131 L 1933.503896 2444.342629 L 2157.701211 1815.358026 L 2403.762597 2269.309272 L 2551.496065 2006.819634 L 2934.298486 2006.819634 " stroke="#ffffff" stroke-width="76.563004" stroke-opacity="1" stroke-miterlimit="10"/></g><g fill="#000b6d" fill-opacity="1"><g transform="translate(131.484853, 101.411679)"><g><path d="M 15.640625 -30.265625 C 17.804688 -30.265625 19.65625 -29.867188 21.1875 -29.078125 C 22.726562 -28.285156 23.890625 -27.175781 24.671875 -25.75 C 25.460938 -24.320312 25.859375 -22.660156 25.859375 -20.765625 C 25.859375 -18.878906 25.460938 -17.222656 24.671875 -15.796875 C 23.890625 -14.378906 22.726562 -13.269531 21.1875 -12.46875 C 19.65625 -11.675781 17.804688 -11.28125 15.640625 -11.28125 L 9.921875 -11.28125 L 9.921875 0 L 3.9375 0 L 3.9375 -30.265625 Z M 14.84375 -16.03125 C 18.175781 -16.03125 19.84375 -17.609375 19.84375 -20.765625 C 19.84375 -23.941406 18.175781 -25.53125 14.84375 -25.53125 L 9.921875 -25.53125 L 9.921875 -16.03125 Z M 14.84375 -16.03125 "/></g></g></g><g fill="#000b6d" fill-opacity="1"><g transform="translate(157.939897, 101.411679)"><g><path d="M 22.5625 -10.125 L 7.890625 -10.125 C 8.054688 -8.132812 8.617188 -6.6875 9.578125 -5.78125 C 10.546875 -4.882812 11.867188 -4.4375 13.546875 -4.4375 C 14.859375 -4.4375 15.921875 -4.679688 16.734375 -5.171875 C 17.546875 -5.660156 18.203125 -6.398438 18.703125 -7.390625 L 19.125 -7.390625 L 22.9375 -4.953125 C 22.195312 -3.347656 21.070312 -2.046875 19.5625 -1.046875 C 18.0625 -0.0546875 16.054688 0.4375 13.546875 0.4375 C 11.179688 0.4375 9.140625 -0.0078125 7.421875 -0.90625 C 5.703125 -1.800781 4.375 -3.132812 3.4375 -4.90625 C 2.507812 -6.6875 2.046875 -8.851562 2.046875 -11.40625 C 2.046875 -14 2.535156 -16.1875 3.515625 -17.96875 C 4.492188 -19.75 5.816406 -21.078125 7.484375 -21.953125 C 9.160156 -22.835938 11.039062 -23.28125 13.125 -23.28125 C 16.351562 -23.28125 18.828125 -22.421875 20.546875 -20.703125 C 22.265625 -18.992188 23.125 -16.484375 23.125 -13.171875 C 23.125 -11.972656 23.082031 -11.039062 23 -10.375 Z M 17.640625 -13.828125 C 17.585938 -15.566406 17.179688 -16.832031 16.421875 -17.625 C 15.671875 -18.425781 14.570312 -18.828125 13.125 -18.828125 C 10.226562 -18.828125 8.523438 -17.160156 8.015625 -13.828125 Z M 17.640625 -13.828125 "/></g></g></g><g fill="#000b6d" fill-opacity="1"><g transform="translate(182.759741, 101.411679)"><g><path d="M 15.75 -5.453125 L 17.25 -1.203125 C 16.625 -0.691406 15.84375 -0.289062 14.90625 0 C 13.96875 0.289062 12.90625 0.4375 11.71875 0.4375 C 9.25 0.4375 7.367188 -0.234375 6.078125 -1.578125 C 4.796875 -2.929688 4.15625 -4.890625 4.15625 -7.453125 L 4.15625 -18.296875 L 0.6875 -18.296875 L 0.6875 -22.859375 L 4.15625 -22.859375 L 4.15625 -27.3125 L 9.890625 -28.25 L 9.890625 -22.859375 L 16.375 -22.859375 L 16.375 -18.296875 L 9.890625 -18.296875 L 9.890625 -7.875 C 9.890625 -6.738281 10.125 -5.910156 10.59375 -5.390625 C 11.070312 -4.878906 11.757812 -4.625 12.65625 -4.625 C 13.675781 -4.625 14.566406 -4.898438 15.328125 -5.453125 Z M 15.75 -5.453125 "/></g></g></g><g fill="#000b6d" fill-opacity="1"><g transform="translate(200.500032, 101.411679)"><g><path d="M 9.421875 0 L 3.9375 0 L 3.9375 -30.265625 L 11.765625 -30.265625 L 19.421875 -8.015625 L 19.859375 -8.015625 L 27.484375 -30.265625 L 35.125 -30.265625 L 35.125 0 L 29.4375 0 L 29.4375 -20 L 28.921875 -20.078125 L 21.921875 0 L 16.9375 0 L 9.9375 -20.078125 L 9.421875 -20 Z M 9.421875 0 "/></g></g></g><g fill="#000b6d" fill-opacity="1"><g transform="translate(239.561787, 101.411679)"><g><path d="M 6.15625 -25.578125 C 5.113281 -25.578125 4.269531 -25.890625 3.625 -26.515625 C 2.976562 -27.140625 2.65625 -27.953125 2.65625 -28.953125 C 2.65625 -29.929688 2.976562 -30.734375 3.625 -31.359375 C 4.269531 -31.984375 5.113281 -32.296875 6.15625 -32.296875 C 6.84375 -32.296875 7.453125 -32.148438 7.984375 -31.859375 C 8.523438 -31.578125 8.941406 -31.179688 9.234375 -30.671875 C 9.535156 -30.171875 9.6875 -29.597656 9.6875 -28.953125 C 9.6875 -28.296875 9.535156 -27.710938 9.234375 -27.203125 C 8.941406 -26.691406 8.523438 -26.289062 7.984375 -26 C 7.453125 -25.71875 6.84375 -25.578125 6.15625 -25.578125 Z M 3.296875 0 L 3.296875 -22.84375 L 9.03125 -22.84375 L 9.03125 0 Z M 3.296875 0 "/></g></g></g><g fill="#000b6d" fill-opacity="1"><g transform="translate(251.857855, 101.411679)"><g><path d="M 15.75 -5.453125 L 17.25 -1.203125 C 16.625 -0.691406 15.84375 -0.289062 14.90625 0 C 13.96875 0.289062 12.90625 0.4375 11.71875 0.4375 C 9.25 0.4375 7.367188 -0.234375 6.078125 -1.578125 C 4.796875 -2.929688 4.15625 -4.890625 4.15625 -7.453125 L 4.15625 -18.296875 L 0.6875 -18.296875 L 0.6875 -22.859375 L 4.15625 -22.859375 L 4.15625 -27.3125 L 9.890625 -28.25 L 9.890625 -22.859375 L 16.375 -22.859375 L 16.375 -18.296875 L 9.890625 -18.296875 L 9.890625 -7.875 C 9.890625 -6.738281 10.125 -5.910156 10.59375 -5.390625 C 11.070312 -4.878906 11.757812 -4.625 12.65625 -4.625 C 13.675781 -4.625 14.566406 -4.898438 15.328125 -5.453125 Z M 15.75 -5.453125 "/></g></g></g><g fill="#000b6d" fill-opacity="1"><g transform="translate(269.598137, 101.411679)"><g><path d="M 3.296875 0 L 3.296875 -22.84375 L 8.859375 -22.84375 L 8.859375 -19.4375 L 9.296875 -19.359375 C 9.847656 -20.628906 10.570312 -21.5625 11.46875 -22.15625 C 12.363281 -22.75 13.457031 -23.046875 14.75 -23.046875 C 16.039062 -23.046875 17.023438 -22.828125 17.703125 -22.390625 L 16.734375 -17.4375 L 16.296875 -17.359375 C 15.921875 -17.503906 15.5625 -17.609375 15.21875 -17.671875 C 14.875 -17.742188 14.453125 -17.78125 13.953125 -17.78125 C 12.347656 -17.78125 11.125 -17.21875 10.28125 -16.09375 C 9.445312 -14.96875 9.03125 -13.164062 9.03125 -10.6875 L 9.03125 0 Z M 3.296875 0 "/></g></g></g><g fill="#000b6d" fill-opacity="1"><g transform="translate(287.069271, 101.411679)"><g><path d="M 8.90625 0.4375 C 7.4375 0.4375 6.164062 0.164062 5.09375 -0.375 C 4.019531 -0.914062 3.191406 -1.707031 2.609375 -2.75 C 2.023438 -3.789062 1.734375 -5.039062 1.734375 -6.5 C 1.734375 -7.851562 2.023438 -8.988281 2.609375 -9.90625 C 3.191406 -10.820312 4.085938 -11.570312 5.296875 -12.15625 C 6.515625 -12.75 8.101562 -13.203125 10.0625 -13.515625 C 11.425781 -13.742188 12.460938 -13.988281 13.171875 -14.25 C 13.890625 -14.507812 14.367188 -14.804688 14.609375 -15.140625 C 14.859375 -15.472656 14.984375 -15.894531 14.984375 -16.40625 C 14.984375 -17.132812 14.726562 -17.691406 14.21875 -18.078125 C 13.707031 -18.460938 12.859375 -18.65625 11.671875 -18.65625 C 10.398438 -18.65625 9.191406 -18.367188 8.046875 -17.796875 C 6.910156 -17.234375 5.921875 -16.492188 5.078125 -15.578125 L 4.65625 -15.578125 L 2.25 -19.1875 C 3.414062 -20.476562 4.832031 -21.484375 6.5 -22.203125 C 8.164062 -22.921875 9.988281 -23.28125 11.96875 -23.28125 C 14.988281 -23.28125 17.175781 -22.632812 18.53125 -21.34375 C 19.882812 -20.0625 20.5625 -18.238281 20.5625 -15.875 L 20.5625 -5.96875 C 20.5625 -4.945312 21.007812 -4.4375 21.90625 -4.4375 C 22.25 -4.4375 22.585938 -4.5 22.921875 -4.625 L 23.21875 -4.53125 L 23.625 -0.53125 C 23.3125 -0.332031 22.867188 -0.164062 22.296875 -0.03125 C 21.734375 0.101562 21.113281 0.171875 20.4375 0.171875 C 19.070312 0.171875 18.003906 -0.0859375 17.234375 -0.609375 C 16.472656 -1.140625 15.925781 -1.960938 15.59375 -3.078125 L 15.15625 -3.125 C 14.039062 -0.75 11.957031 0.4375 8.90625 0.4375 Z M 10.71875 -3.84375 C 12.050781 -3.84375 13.113281 -4.285156 13.90625 -5.171875 C 14.695312 -6.066406 15.09375 -7.3125 15.09375 -8.90625 L 15.09375 -11.21875 L 14.703125 -11.3125 C 14.359375 -11.03125 13.90625 -10.796875 13.34375 -10.609375 C 12.78125 -10.421875 11.976562 -10.238281 10.9375 -10.0625 C 9.6875 -9.851562 8.789062 -9.492188 8.25 -8.984375 C 7.707031 -8.484375 7.4375 -7.773438 7.4375 -6.859375 C 7.4375 -5.878906 7.722656 -5.128906 8.296875 -4.609375 C 8.878906 -4.097656 9.6875 -3.84375 10.71875 -3.84375 Z M 10.71875 -3.84375 "/></g></g></g></svg>