<svg xmlns="http://www.w3.org/2000/svg" xmlns:xlink="http://www.w3.org/1999/xlink" width="500" zoomAndPan="magnify" viewBox="0 0 375 374.999991" height="500" preserveAspectRatio="xMidYMid meet" version="1.0"><defs><g/><clipPath id="aee620ace0"><path d="M 83 118 L 118.96875 118 L 118.96875 159.238281 L 83 159.238281 Z M 83 118 " clip-rule="nonzero"/></clipPath><clipPath id="bcb58569c3"><path d="M 86.007812 124 L 116 124 L 116 148.929688 L 86.007812 148.929688 Z M 86.007812 124 " clip-rule="nonzero"/></clipPath><clipPath id="05c11bfc73"><path d="M 86.007812 123.925781 L 116.386719 123.925781 L 116.386719 148.929688 L 86.007812 148.929688 Z M 86.007812 123.925781 " clip-rule="nonzero"/></clipPath></defs><rect x="-37.5" width="450" fill="#ffffff" y="-37.499999" height="449.999989" fill-opacity="1"/><rect x="-37.5" width="450" fill="#ffffff" y="-37.499999" height="449.999989" fill-opacity="1"/><g clip-path="url(#aee620ace0)"><path fill="#ff1616" d="M 116.347656 121.140625 C 114.742188 119.609375 112.59375 118.757812 110.378906 118.765625 C 108.089844 118.773438 105.941406 119.671875 104.320312 121.289062 L 101.234375 124.375 L 98.226562 121.367188 C 94.875 118.015625 89.417969 117.910156 86.03125 121.230469 C 82.613281 124.582031 82.59375 130.089844 85.972656 133.464844 L 102.3125 149.808594 C 104.179688 151.671875 104.265625 154.710938 102.4375 156.609375 C 100.566406 158.554688 97.460938 158.578125 95.558594 156.675781 L 91.511719 152.628906 C 91.339844 152.457031 91.324219 152.1875 91.46875 151.996094 C 92.070312 151.210938 92.398438 150.210938 92.324219 149.132812 C 92.179688 147.007812 90.441406 145.300781 88.3125 145.1875 C 85.847656 145.058594 83.808594 147.042969 83.839844 149.488281 C 83.871094 151.75 85.714844 153.621094 87.976562 153.675781 C 88.707031 153.695312 89.398438 153.527344 90.003906 153.21875 C 90.1875 153.125 90.410156 153.167969 90.558594 153.3125 L 94.738281 157.496094 C 95.902344 158.660156 97.433594 159.242188 98.964844 159.242188 C 100.492188 159.242188 102.023438 158.660156 103.1875 157.496094 C 105.515625 155.164062 105.515625 151.375 103.1875 149.046875 L 86.789062 132.648438 C 83.886719 129.742188 83.886719 125.011719 86.789062 122.105469 C 89.695312 119.203125 94.425781 119.203125 97.332031 122.105469 L 100.8125 125.589844 C 100.929688 125.703125 101.082031 125.761719 101.234375 125.757812 C 101.390625 125.761719 101.542969 125.703125 101.660156 125.589844 L 105.070312 122.175781 C 106.488281 120.761719 108.394531 119.929688 110.394531 119.925781 C 112.394531 119.921875 114.269531 120.695312 115.683594 122.105469 C 117.09375 123.519531 117.867188 125.394531 117.863281 127.390625 C 117.863281 129.390625 117.027344 131.300781 115.613281 132.71875 L 114.511719 133.820312 C 114.417969 133.910156 114.296875 133.960938 114.167969 133.960938 L 110.878906 133.960938 C 110.699219 133.960938 110.53125 133.859375 110.449219 133.695312 L 108.863281 130.519531 C 108.683594 130.164062 108.175781 130.164062 108 130.519531 L 105.269531 135.972656 C 105.09375 136.328125 104.585938 136.328125 104.410156 135.972656 L 103.476562 134.109375 C 103.300781 133.753906 102.792969 133.753906 102.613281 134.109375 L 101.683594 135.972656 C 101.503906 136.328125 101 136.328125 100.820312 135.972656 L 98.09375 130.519531 C 97.917969 130.164062 97.410156 130.164062 97.230469 130.519531 L 95.644531 133.695312 C 95.5625 133.855469 95.394531 133.960938 95.214844 133.960938 L 92.304688 133.960938 C 91.988281 133.960938 91.710938 134.203125 91.703125 134.519531 C 91.691406 134.847656 91.953125 135.117188 92.28125 135.117188 L 95.929688 135.117188 C 96.113281 135.117188 96.28125 135.015625 96.359375 134.851562 L 97.230469 133.105469 C 97.410156 132.75 97.917969 132.75 98.09375 133.105469 L 100.820312 138.558594 C 101 138.914062 101.503906 138.914062 101.683594 138.558594 L 102.613281 136.695312 C 102.792969 136.339844 103.300781 136.339844 103.476562 136.695312 L 104.410156 138.558594 C 104.585938 138.917969 105.09375 138.917969 105.269531 138.558594 L 107.996094 133.105469 C 108.175781 132.753906 108.683594 132.75 108.859375 133.105469 L 109.734375 134.851562 C 109.816406 135.015625 109.980469 135.117188 110.164062 135.117188 L 114.605469 135.117188 C 114.644531 135.117188 114.679688 135.113281 114.710938 135.109375 C 114.714844 135.109375 114.714844 135.109375 114.71875 135.109375 C 114.753906 135.101562 114.785156 135.089844 114.816406 135.078125 C 114.820312 135.078125 114.824219 135.078125 114.828125 135.074219 C 114.859375 135.0625 114.890625 135.046875 114.917969 135.027344 C 114.921875 135.027344 114.921875 135.023438 114.925781 135.023438 C 114.957031 135 114.988281 134.976562 115.011719 134.953125 C 115.015625 134.953125 115.015625 134.953125 115.015625 134.949219 L 116.414062 133.550781 C 118.074219 131.894531 119.039062 129.648438 119.023438 127.304688 C 119.003906 124.960938 118.050781 122.765625 116.347656 121.140625 Z M 84.996094 149.429688 C 84.996094 147.726562 86.382812 146.339844 88.085938 146.339844 C 89.789062 146.339844 91.175781 147.726562 91.175781 149.429688 C 91.175781 151.132812 89.789062 152.519531 88.085938 152.519531 C 86.382812 152.519531 84.996094 151.132812 84.996094 149.429688 Z M 84.996094 149.429688 " fill-opacity="1" fill-rule="nonzero"/></g><g clip-path="url(#bcb58569c3)"><path fill="#ff1616" d="M 101.179688 148.859375 L 89.039062 137.285156 C 86.117188 134.5 86.007812 129.878906 88.792969 126.957031 C 91.574219 124.039062 96.199219 123.925781 99.121094 126.710938 L 101.179688 128.671875 L 103.238281 126.710938 C 106.15625 123.925781 110.78125 124.039062 113.566406 126.957031 C 116.351562 129.878906 116.238281 134.5 113.320312 137.285156 L 101.179688 148.859375 " fill-opacity="1" fill-rule="nonzero"/></g><path fill="#ff1616" d="M 89.886719 138.984375 L 95.285156 138.984375 L 98.382812 132.15625 L 101.640625 141.285156 L 105.210938 134.695312 L 107.355469 138.507812 L 112.914062 138.507812 " fill-opacity="1" fill-rule="nonzero"/><g clip-path="url(#05c11bfc73)"><path stroke-linecap="butt" transform="matrix(0.0145189, 0, 0, -0.0145189, 70.311593, 167.643798)" fill="none" stroke-linejoin="miter" d="M 1348.248235 1973.934475 L 1720.068769 1973.934475 L 1933.421651 2444.22557 L 2157.805389 1815.466823 L 2403.712747 2269.346158 L 2551.418588 2006.757995 L 2934.269978 2006.757995 " stroke="#ffffff" stroke-width="76.563004" stroke-opacity="1" stroke-miterlimit="10"/></g><g fill="#000b6d" fill-opacity="1"><g transform="translate(125.009043, 148.806664)"><g><path d="M 9.875 -19.125 C 11.238281 -19.125 12.40625 -18.867188 13.375 -18.359375 C 14.351562 -17.859375 15.085938 -17.15625 15.578125 -16.25 C 16.078125 -15.351562 16.328125 -14.304688 16.328125 -13.109375 C 16.328125 -11.921875 16.078125 -10.875 15.578125 -9.96875 C 15.085938 -9.070312 14.351562 -8.375 13.375 -7.875 C 12.40625 -7.375 11.238281 -7.125 9.875 -7.125 L 6.265625 -7.125 L 6.265625 0 L 2.484375 0 L 2.484375 -19.125 Z M 9.375 -10.125 C 11.476562 -10.125 12.53125 -11.117188 12.53125 -13.109375 C 12.53125 -15.117188 11.476562 -16.125 9.375 -16.125 L 6.265625 -16.125 L 6.265625 -10.125 Z M 9.375 -10.125 "/></g></g></g><g fill="#000b6d" fill-opacity="1"><g transform="translate(141.722389, 148.806664)"><g><path d="M 14.25 -6.390625 L 4.984375 -6.390625 C 5.085938 -5.140625 5.441406 -4.226562 6.046875 -3.65625 C 6.660156 -3.082031 7.492188 -2.796875 8.546875 -2.796875 C 9.378906 -2.796875 10.050781 -2.953125 10.5625 -3.265625 C 11.082031 -3.578125 11.5 -4.046875 11.8125 -4.671875 L 12.078125 -4.671875 L 14.484375 -3.125 C 14.015625 -2.113281 13.304688 -1.289062 12.359375 -0.65625 C 11.410156 -0.03125 10.140625 0.28125 8.546875 0.28125 C 7.054688 0.28125 5.769531 0 4.6875 -0.5625 C 3.601562 -1.132812 2.765625 -1.976562 2.171875 -3.09375 C 1.585938 -4.21875 1.296875 -5.585938 1.296875 -7.203125 C 1.296875 -8.835938 1.601562 -10.21875 2.21875 -11.34375 C 2.84375 -12.46875 3.679688 -13.304688 4.734375 -13.859375 C 5.785156 -14.421875 6.972656 -14.703125 8.296875 -14.703125 C 10.328125 -14.703125 11.882812 -14.160156 12.96875 -13.078125 C 14.0625 -11.992188 14.609375 -10.40625 14.609375 -8.3125 C 14.609375 -7.550781 14.582031 -6.960938 14.53125 -6.546875 Z M 11.140625 -8.734375 C 11.109375 -9.835938 10.851562 -10.640625 10.375 -11.140625 C 9.894531 -11.640625 9.203125 -11.890625 8.296875 -11.890625 C 6.460938 -11.890625 5.382812 -10.835938 5.0625 -8.734375 Z M 11.140625 -8.734375 "/></g></g></g><g fill="#000b6d" fill-opacity="1"><g transform="translate(157.402632, 148.806664)"><g><path d="M 9.953125 -3.4375 L 10.890625 -0.765625 C 10.492188 -0.441406 10 -0.1875 9.40625 0 C 8.820312 0.1875 8.15625 0.28125 7.40625 0.28125 C 5.84375 0.28125 4.65625 -0.144531 3.84375 -1 C 3.03125 -1.851562 2.625 -3.085938 2.625 -4.703125 L 2.625 -11.5625 L 0.4375 -11.5625 L 0.4375 -14.4375 L 2.625 -14.4375 L 2.625 -17.25 L 6.25 -17.84375 L 6.25 -14.4375 L 10.34375 -14.4375 L 10.34375 -11.5625 L 6.25 -11.5625 L 6.25 -4.96875 C 6.25 -4.25 6.394531 -3.726562 6.6875 -3.40625 C 6.988281 -3.082031 7.421875 -2.921875 7.984375 -2.921875 C 8.628906 -2.921875 9.191406 -3.09375 9.671875 -3.4375 Z M 9.953125 -3.4375 "/></g></g></g><g fill="#000b6d" fill-opacity="1"><g transform="translate(168.610279, 148.806664)"><g><path d="M 5.953125 0 L 2.484375 0 L 2.484375 -19.125 L 7.421875 -19.125 L 12.265625 -5.0625 L 12.546875 -5.0625 L 17.359375 -19.125 L 22.171875 -19.125 L 22.171875 0 L 18.59375 0 L 18.59375 -12.625 L 18.265625 -12.6875 L 13.84375 0 L 10.703125 0 L 6.28125 -12.6875 L 5.953125 -12.625 Z M 5.953125 0 "/></g></g></g><g fill="#000b6d" fill-opacity="1"><g transform="translate(193.288025, 148.806664)"><g><path d="M 3.890625 -16.15625 C 3.234375 -16.15625 2.695312 -16.351562 2.28125 -16.75 C 1.875 -17.144531 1.671875 -17.65625 1.671875 -18.28125 C 1.671875 -18.894531 1.875 -19.398438 2.28125 -19.796875 C 2.695312 -20.203125 3.234375 -20.40625 3.890625 -20.40625 C 4.316406 -20.40625 4.703125 -20.3125 5.046875 -20.125 C 5.390625 -19.9375 5.65625 -19.679688 5.84375 -19.359375 C 6.03125 -19.046875 6.125 -18.6875 6.125 -18.28125 C 6.125 -17.875 6.03125 -17.507812 5.84375 -17.1875 C 5.65625 -16.863281 5.390625 -16.609375 5.046875 -16.421875 C 4.703125 -16.242188 4.316406 -16.15625 3.890625 -16.15625 Z M 2.078125 0 L 2.078125 -14.421875 L 5.703125 -14.421875 L 5.703125 0 Z M 2.078125 0 "/></g></g></g><g fill="#000b6d" fill-opacity="1"><g transform="translate(201.056219, 148.806664)"><g><path d="M 9.953125 -3.4375 L 10.890625 -0.765625 C 10.492188 -0.441406 10 -0.1875 9.40625 0 C 8.820312 0.1875 8.15625 0.28125 7.40625 0.28125 C 5.84375 0.28125 4.65625 -0.144531 3.84375 -1 C 3.03125 -1.851562 2.625 -3.085938 2.625 -4.703125 L 2.625 -11.5625 L 0.4375 -11.5625 L 0.4375 -14.4375 L 2.625 -14.4375 L 2.625 -17.25 L 6.25 -17.84375 L 6.25 -14.4375 L 10.34375 -14.4375 L 10.34375 -11.5625 L 6.25 -11.5625 L 6.25 -4.96875 C 6.25 -4.25 6.394531 -3.726562 6.6875 -3.40625 C 6.988281 -3.082031 7.421875 -2.921875 7.984375 -2.921875 C 8.628906 -2.921875 9.191406 -3.09375 9.671875 -3.4375 Z M 9.953125 -3.4375 "/></g></g></g><g fill="#000b6d" fill-opacity="1"><g transform="translate(212.263865, 148.806664)"><g><path d="M 2.078125 0 L 2.078125 -14.421875 L 5.59375 -14.421875 L 5.59375 -12.28125 L 5.875 -12.234375 C 6.21875 -13.035156 6.671875 -13.617188 7.234375 -13.984375 C 7.804688 -14.359375 8.5 -14.546875 9.3125 -14.546875 C 10.132812 -14.546875 10.757812 -14.410156 11.1875 -14.140625 L 10.5625 -11.015625 L 10.296875 -10.953125 C 10.054688 -11.054688 9.828125 -11.128906 9.609375 -11.171875 C 9.390625 -11.210938 9.125 -11.234375 8.8125 -11.234375 C 7.800781 -11.234375 7.03125 -10.875 6.5 -10.15625 C 5.96875 -9.445312 5.703125 -8.3125 5.703125 -6.75 L 5.703125 0 Z M 2.078125 0 "/></g></g></g><g fill="#000b6d" fill-opacity="1"><g transform="translate(223.301483, 148.806664)"><g><path d="M 5.625 0.28125 C 4.695312 0.28125 3.894531 0.109375 3.21875 -0.234375 C 2.539062 -0.578125 2.015625 -1.078125 1.640625 -1.734375 C 1.273438 -2.390625 1.09375 -3.179688 1.09375 -4.109375 C 1.09375 -4.960938 1.273438 -5.675781 1.640625 -6.25 C 2.015625 -6.832031 2.582031 -7.304688 3.34375 -7.671875 C 4.113281 -8.046875 5.117188 -8.335938 6.359375 -8.546875 C 7.222656 -8.679688 7.878906 -8.832031 8.328125 -9 C 8.773438 -9.164062 9.078125 -9.351562 9.234375 -9.5625 C 9.390625 -9.769531 9.46875 -10.035156 9.46875 -10.359375 C 9.46875 -10.816406 9.304688 -11.164062 8.984375 -11.40625 C 8.660156 -11.65625 8.125 -11.78125 7.375 -11.78125 C 6.570312 -11.78125 5.804688 -11.597656 5.078125 -11.234375 C 4.359375 -10.878906 3.734375 -10.410156 3.203125 -9.828125 L 2.9375 -9.828125 L 1.421875 -12.125 C 2.160156 -12.9375 3.054688 -13.566406 4.109375 -14.015625 C 5.160156 -14.472656 6.3125 -14.703125 7.5625 -14.703125 C 9.46875 -14.703125 10.847656 -14.296875 11.703125 -13.484375 C 12.554688 -12.671875 12.984375 -11.519531 12.984375 -10.03125 L 12.984375 -3.765625 C 12.984375 -3.117188 13.265625 -2.796875 13.828125 -2.796875 C 14.046875 -2.796875 14.257812 -2.835938 14.46875 -2.921875 L 14.65625 -2.859375 L 14.921875 -0.34375 C 14.722656 -0.207031 14.441406 -0.0976562 14.078125 -0.015625 C 13.722656 0.0664062 13.332031 0.109375 12.90625 0.109375 C 12.039062 0.109375 11.363281 -0.0546875 10.875 -0.390625 C 10.394531 -0.722656 10.050781 -1.242188 9.84375 -1.953125 L 9.578125 -1.96875 C 8.867188 -0.46875 7.550781 0.28125 5.625 0.28125 Z M 6.78125 -2.4375 C 7.613281 -2.4375 8.28125 -2.71875 8.78125 -3.28125 C 9.28125 -3.84375 9.53125 -4.625 9.53125 -5.625 L 9.53125 -7.09375 L 9.28125 -7.140625 C 9.0625 -6.960938 8.773438 -6.816406 8.421875 -6.703125 C 8.066406 -6.585938 7.5625 -6.472656 6.90625 -6.359375 C 6.125 -6.222656 5.554688 -5.992188 5.203125 -5.671875 C 4.859375 -5.359375 4.6875 -4.910156 4.6875 -4.328125 C 4.6875 -3.710938 4.867188 -3.242188 5.234375 -2.921875 C 5.609375 -2.597656 6.125 -2.4375 6.78125 -2.4375 Z M 6.78125 -2.4375 "/></g></g></g></svg>